# xmcd CD database file
#
# Track frame offsets:
#	150
#	14300
#	31728
#	53113
#	69052
#	87579
#	101486
#	118696
#	134782
#	152302
#	168372
#	182199
#
# Disc length: 2655 seconds
#
# Revision: 0
# Processed by: cddbd v1.5.1PL0 Copyright (c) Steve Scherf et al.
# Submitted via: CDex 1.51
#
DISCID=940a5d0c
DTITLE=Chris Cagle  - Play It Loud
DYEAR=2001
DGENRE=Country
TTITLE0=My Love Goes On And On 
TTITLE1=Laredo 
TTITLE2=The Safe Side 
TTITLE3=Country By The Grace Of God 
TTITLE4=Ton Of Love 
TTITLE5=Play It Loud 
TTITLE6=Are You Ever Gonna Love Me 
TTITLE7=Who Needs The Whiskey 
TTITLE8=The Love Between A Woman And A Man 
TTITLE9=Lovin' You Lovin' Me 
TTITLE10=Rock The Boat 
TTITLE11=I Breathe In, I Breathe Out 
EXTD=YEAR: 2001
EXTT0=
EXTT1=
EXTT2=
EXTT3=
EXTT4=
EXTT5=
EXTT6=
EXTT7=
EXTT8=
EXTT9=
EXTT10=
EXTT11=
PLAYORDER=
